<svg width="142" height="136" viewBox="0 0 142 136" fill="none" xmlns="http://www.w3.org/2000/svg">
<path fill-rule="evenodd" clip-rule="evenodd" d="M0 133.926V111.259L4.38898 101.2L43.1892 118.13L35.57 135.592H3.81951L0 133.926ZM93.3037 135.592H47.1167L61.354 102.962L100.154 119.892L93.3037 135.592ZM47.4216 108.43L8.62137 91.5003L29.7833 43L68.5835 59.9295L47.4216 108.43ZM65.5864 93.2621L78.2835 64.1619L117.084 81.0914L104.387 110.192L65.5864 93.2621Z" fill="#B2A2E0"/>
<path d="M100.912 35.8135L115.289 27.8837L105.377 9.91221L91 17.842L100.912 35.8135ZM108.842 50.1907L123.219 42.2609L117.272 31.478L102.895 39.4078L108.842 50.1907ZM126.814 40.2784L141.191 32.3486L131.279 14.3771L116.901 22.3069L126.814 40.2784ZM108.971 7.92975L114.919 18.7126L129.296 10.7828L123.349 -8.53869e-05L108.971 7.92975Z" fill="#B2A2E0"/>
</svg>
