<svg width="152" height="143" viewBox="0 0 152 143" fill="none" xmlns="http://www.w3.org/2000/svg">
<path fill-rule="evenodd" clip-rule="evenodd" d="M0 115.002V95.7806C4.65993 79.7746 20.2214 69.4734 36.6776 71.3327C46.6258 59.488 62.6639 53.4452 78.7912 57.0248C99.1038 61.5334 112.804 79.7396 112.326 99.8342C126.612 104.059 135.401 118.54 132.131 133.273C131.383 136.641 130.068 139.739 128.309 142.486H41.7423L25.4909 138.879C12.8604 136.076 3.40553 126.612 0 115.002ZM73.8499 132.047L78.8044 109.726L95.5455 113.441L73.8367 79.3463L39.7417 101.055L56.4828 104.771L51.5283 127.093L73.8499 132.047Z" fill="#522EB9" fill-opacity="0.25"/>
<path d="M135.348 5.94974C130.151 0.017039 121.359 -1.60549 114.293 2.48496C108.684 5.7326 105.654 11.7366 105.925 17.8C100.442 21.8037 98.7651 29.3831 102.238 35.3811C105.957 41.8062 114.202 44.005 120.627 40.2853L145.861 25.6766C151.219 22.575 153.05 15.7097 149.948 10.3522C146.981 5.22769 140.597 3.37739 135.348 5.94974ZM128.289 17.7075L132.784 25.472L125.02 29.967L120.525 22.2025L114.702 25.5738L118.788 10.2494L134.113 14.3363L128.289 17.7075Z" fill="#522EB9" fill-opacity="0.25"/>
</svg>
