<svg width="157" height="146" viewBox="0 0 157 146" fill="none" xmlns="http://www.w3.org/2000/svg">
<path fill-rule="evenodd" clip-rule="evenodd" d="M106.596 145.651L109.441 131.067L73.0577 123.968L84.0397 140.274C80.6026 142.589 76.9617 144.375 73.2138 145.651H106.596ZM43.689 145.651H18.4962C15.1634 142.587 12.1351 139.089 9.49806 135.174C4.21935 127.336 1.13747 118.677 0 109.891L13.7788 112.57C14.9998 117.878 17.1471 123.069 20.3685 127.852C26.1996 136.51 34.4891 142.543 43.689 145.651ZM7.38861 73.3887L14.4867 37.0051L25.4688 53.3107C52.4437 35.1428 89.1675 42.3119 107.332 69.2814C112.61 77.119 115.692 85.7786 116.83 94.5644L103.051 91.8855C101.83 86.5769 99.6828 81.3858 96.4614 76.6028C82.3311 55.6229 53.7646 50.0546 32.7901 64.1812L43.7722 80.4868L7.38861 73.3887Z" fill="#B2A2E0"/>
<path d="M156.553 15.2628L145.539 8.2654L138.541 19.2794L145.296 17.7732C147.233 26.4614 141.741 35.1096 133.05 37.0476C131.069 37.4895 129.092 37.5268 127.195 37.2455L124.548 41.4178C127.574 42.1729 130.808 42.2745 134.054 41.5505C145.226 39.0592 152.29 27.9428 149.799 16.769L156.553 15.2628ZM134.523 1.15758C131.498 0.402472 128.264 0.300897 125.017 1.02489C113.846 3.51618 106.781 14.6325 109.273 25.8063L102.519 27.3126L113.533 34.31L120.53 23.296L113.776 24.8022C111.838 16.114 117.331 7.46574 126.021 5.52773C128.003 5.08591 129.98 5.04855 131.876 5.32986L134.523 1.15758Z" fill="#B2A2E0"/>
</svg>
