<svg width="68" height="44" viewBox="0 0 68 44" fill="none" xmlns="http://www.w3.org/2000/svg">
<path fill-rule="evenodd" clip-rule="evenodd" d="M43.1599 26.2913C43.4619 24.845 43.6206 23.3462 43.6206 21.8103C43.6206 20.9136 43.5665 20.0296 43.4614 19.1613H44.3065V14.9467C44.3065 14.0101 44.0949 13.2942 43.6716 12.7989C43.2574 12.3036 42.69 12.0559 41.9696 12.0559C41.776 12.0559 41.5732 12.0813 41.3611 12.1322C37.7952 4.94237 30.3799 0 21.8103 0C9.76481 0 0 9.76481 0 21.8103C0 33.8558 9.76481 43.6206 21.8103 43.6206C30.5093 43.6206 38.0188 38.5279 41.52 31.1613H43.2005V26.9467C43.2005 26.7147 43.187 26.4962 43.1599 26.2913ZM38.8373 25.3033C38.892 25.1705 38.955 25.0518 39.0264 24.9475C39.2696 24.6052 39.5488 24.3711 39.8639 24.245C40.1791 24.1189 40.4763 24.0559 40.7555 24.0559C41.512 24.0559 42.1063 24.3036 42.5386 24.7989C42.8705 25.1715 43.0776 25.6689 43.1599 26.2913C42.8039 27.9962 42.2488 29.628 41.52 31.1613H40.9986V27.1628C40.9986 26.7396 40.9131 26.4199 40.742 26.2037C40.5709 25.9876 40.3412 25.8795 40.0531 25.8795C39.8459 25.8795 39.6478 25.9426 39.4587 26.0687C39.2786 26.1857 39.13 26.3748 39.0129 26.636C38.9049 26.8972 38.8508 27.2394 38.8508 27.6626V31.1613H36.649V24.272H38.8373V25.3033ZM39.8064 13.4814C39.9246 13.1706 40.0783 12.9205 40.2675 12.7313C40.5197 12.4792 40.7988 12.3036 41.105 12.2045C41.1918 12.1764 41.2772 12.1523 41.3611 12.1322C42.4344 14.2961 43.159 16.6637 43.4614 19.1613H42.1046V15.0953C42.1046 14.69 42.0281 14.3883 41.875 14.1902C41.7309 13.9831 41.5283 13.8795 41.2671 13.8795C40.988 13.8795 40.7403 14.0146 40.5242 14.2848C40.308 14.5459 40.2 14.9737 40.2 15.5681V19.1613H37.9981V15.0953C37.9981 14.69 37.9261 14.3883 37.782 14.1902C37.6379 13.9831 37.4353 13.8795 37.1741 13.8795C36.8949 13.8795 36.6473 14.0146 36.4311 14.2848C36.215 14.5459 36.1069 14.9737 36.1069 15.5681V19.1613H33.9051V12.272H36.0934V13.309C36.198 13.042 36.3286 12.8269 36.4852 12.6638C36.7013 12.4386 36.9355 12.281 37.1876 12.191C37.4488 12.1009 37.6964 12.0559 37.9306 12.0559C38.4349 12.0559 38.8581 12.2045 39.2004 12.5017C39.4747 12.7327 39.6767 13.0593 39.8064 13.4814ZM24.8407 14.1632V12.1505H24.5165C24.2373 12.1505 23.9401 12.2135 23.6249 12.3396C23.3097 12.4657 23.0306 12.6998 22.7874 13.042C22.716 13.1464 22.653 13.265 22.5983 13.3979V12.272H20.41V19.1613H22.6118V16.203C22.6118 15.7257 22.6748 15.3384 22.8009 15.0413C22.936 14.7351 23.1341 14.5144 23.3953 14.3793C23.6655 14.2353 24.0032 14.1632 24.4084 14.1632H24.8407ZM32.5143 18.3508L31.4606 16.9865C31.2535 17.1846 31.0013 17.3467 30.7041 17.4728C30.407 17.5988 30.0647 17.6619 29.6775 17.6619C29.2813 17.6619 28.9526 17.5853 28.6914 17.4322C28.4302 17.2791 28.2366 17.0585 28.1105 16.7703C28.0566 16.6431 28.0142 16.5035 27.9833 16.3516H32.4737V15.7167V15.6356C32.4737 14.9512 32.3341 14.3388 32.055 13.7985C31.7758 13.2582 31.3931 12.8349 30.9068 12.5287C30.4205 12.2135 29.8666 12.0559 29.2452 12.0559C28.5608 12.0559 27.9484 12.218 27.4081 12.5422C26.8768 12.8574 26.458 13.2942 26.1518 13.8525C25.8456 14.4019 25.6926 15.0277 25.6926 15.7302C25.6926 16.4506 25.8547 17.0855 26.1789 17.6349C26.5121 18.1842 26.9713 18.612 27.5567 18.9181C28.1421 19.2243 28.8265 19.3774 29.61 19.3774C30.1863 19.3774 30.7222 19.2919 31.2175 19.1208C31.7218 18.9407 32.154 18.684 32.5143 18.3508ZM30.3183 15.0413C30.2808 14.6745 30.1933 14.3863 30.0557 14.1767C29.8756 13.8885 29.5875 13.7445 29.1912 13.7445C28.912 13.7445 28.6779 13.821 28.4888 13.9741C28.2997 14.1182 28.1556 14.3343 28.0565 14.6225C28.0167 14.7498 27.9857 14.8894 27.9635 15.0413H30.3183ZM47.3813 18.9181C47.9397 19.2243 48.5836 19.3774 49.313 19.3774C50.0515 19.3774 50.6954 19.2243 51.2447 18.9181C51.8031 18.6029 52.2353 18.1707 52.5415 17.6213C52.8567 17.063 53.0143 16.4281 53.0143 15.7167C53.0143 14.9962 52.8567 14.3613 52.5415 13.812C52.2353 13.2627 51.8031 12.8349 51.2447 12.5287C50.6954 12.2135 50.0515 12.0559 49.313 12.0559C48.5836 12.0559 47.9397 12.2135 47.3813 12.5287C46.832 12.8349 46.3997 13.2627 46.0845 13.812C45.7783 14.3613 45.6252 14.9962 45.6252 15.7167C45.6252 16.4281 45.7783 17.063 46.0845 17.6213C46.3997 18.1707 46.832 18.6029 47.3813 18.9181ZM50.056 17.3107C49.8489 17.4637 49.6012 17.5403 49.313 17.5403C49.0338 17.5403 48.7862 17.4637 48.5701 17.3107C48.3629 17.1486 48.1963 16.9324 48.0703 16.6623C47.9532 16.3831 47.8946 16.0679 47.8946 15.7167C47.8946 15.3564 47.9532 15.0413 48.0703 14.7711C48.1963 14.5009 48.3629 14.2893 48.5701 14.1362C48.7862 13.9741 49.0338 13.893 49.313 13.893C49.6012 13.893 49.8489 13.9741 50.056 14.1362C50.2721 14.2893 50.4387 14.5009 50.5558 14.7711C50.6819 15.0413 50.7449 15.3564 50.7449 15.7167C50.7449 16.0679 50.6819 16.3831 50.5558 16.6623C50.4387 16.9324 50.2721 17.1486 50.056 17.3107ZM56.0387 19.1613H58.1595L60.9017 12.272H58.7404L57.1464 17.0295L55.5524 12.272H53.2965L56.0387 19.1613ZM68 18.3508L66.9464 16.9865C66.7392 17.1846 66.4871 17.3467 66.1899 17.4728C65.8927 17.5988 65.5505 17.6619 65.1633 17.6619C64.767 17.6619 64.4383 17.5853 64.1771 17.4322C63.916 17.2791 63.7224 17.0585 63.5963 16.7703C63.5423 16.6431 63.4999 16.5035 63.469 16.3516H67.9595V15.7167V15.6356C67.9595 14.9512 67.8199 14.3388 67.5407 13.7985C67.2615 13.2582 66.8788 12.8349 66.3925 12.5287C65.9062 12.2135 65.3524 12.0559 64.731 12.0559C64.0466 12.0559 63.4342 12.218 62.8939 12.5422C62.3625 12.8574 61.9438 13.2942 61.6376 13.8525C61.3314 14.4019 61.1783 15.0277 61.1783 15.7302C61.1783 16.4506 61.3404 17.0855 61.6646 17.6349C61.9978 18.1842 62.4571 18.612 63.0424 18.9181C63.6278 19.2243 64.3122 19.3774 65.0957 19.3774C65.6721 19.3774 66.2079 19.2919 66.7032 19.1208C67.2075 18.9407 67.6398 18.684 68 18.3508ZM65.8041 15.0413C65.7665 14.6745 65.679 14.3863 65.5415 14.1767C65.3614 13.8885 65.0732 13.7445 64.677 13.7445C64.3978 13.7445 64.1636 13.821 63.9745 13.9741C63.7854 14.1182 63.6413 14.3343 63.5423 14.6225C63.5025 14.7498 63.4715 14.8894 63.4493 15.0413H65.8041ZM20.41 31.1613H22.5983V30.423C22.7627 30.6488 22.9608 30.8408 23.1927 30.9992C23.5709 31.2513 24.0347 31.3774 24.584 31.3774C25.1514 31.3774 25.6737 31.2243 26.151 30.9181C26.6373 30.612 27.0245 30.1842 27.3127 29.6349C27.6099 29.0855 27.7585 28.4461 27.7585 27.7167C27.7585 26.9782 27.6099 26.3388 27.3127 25.7985C27.0245 25.2491 26.6373 24.8214 26.151 24.5152C25.6737 24.209 25.1469 24.0559 24.5705 24.0559C24.0752 24.0559 23.6474 24.1595 23.2872 24.3666C23.0167 24.5262 22.7915 24.7312 22.6118 24.9816V21.4353H20.41V31.1613ZM22.6118 28.563C22.6602 28.7124 22.7277 28.8491 22.8144 28.9729C22.9495 29.1531 23.1161 29.2926 23.3142 29.3917C23.5124 29.4908 23.7285 29.5403 23.9626 29.5403C24.2778 29.5403 24.548 29.4637 24.7731 29.3107C24.9983 29.1486 25.1739 28.9324 25.3 28.6623C25.426 28.3831 25.4891 28.0679 25.4891 27.7167C25.4891 27.3655 25.4305 27.0548 25.3135 26.7846C25.2054 26.5054 25.0433 26.2893 24.8272 26.1362C24.62 25.9741 24.3634 25.893 24.0572 25.893C23.778 25.893 23.5304 25.9651 23.3142 26.1092C23.0981 26.2533 22.927 26.4604 22.8009 26.7306C22.6748 26.9917 22.6118 27.3069 22.6118 27.6761V28.563ZM33.1068 31.1613H35.0115V26.9872C35.0115 26.3838 34.8764 25.866 34.6063 25.4338C34.3451 24.9925 33.9714 24.6548 33.4851 24.4206C33.0078 24.1775 32.4404 24.0559 31.783 24.0559C30.6213 24.0559 29.6082 24.3981 28.7436 25.0825L29.8378 26.3929C30.3872 25.9426 30.9635 25.7174 31.5669 25.7174C32.0262 25.7174 32.3774 25.83 32.6205 26.0551C32.8289 26.2481 32.948 26.5137 32.9778 26.8521H31.81C30.7744 26.8521 29.9684 27.0503 29.392 27.4465C28.8157 27.8337 28.5275 28.3831 28.5275 29.0945C28.5275 29.5538 28.6311 29.9545 28.8382 30.2968C29.0543 30.639 29.3515 30.9046 29.7297 31.0938C30.108 31.2829 30.5538 31.3774 31.0671 31.3774C31.5894 31.3774 32.0397 31.2604 32.4179 31.0262C32.693 30.8599 32.9226 30.6481 33.1068 30.3909V31.1613ZM32.9853 28.9242V28.1624H31.9316C31.5534 28.1624 31.2517 28.239 31.0265 28.3921C30.8104 28.5452 30.7023 28.7523 30.7023 29.0135C30.7023 29.2386 30.7879 29.4277 30.959 29.5808C31.1391 29.7249 31.3688 29.797 31.6479 29.797C31.9091 29.797 32.1477 29.7339 32.3639 29.6078C32.58 29.4818 32.7556 29.3107 32.8907 29.0945C32.926 29.0394 32.9575 28.9826 32.9853 28.9242ZM51.3791 32.2014C51.7123 31.6341 51.8789 30.9587 51.8789 30.1752V24.272H49.6905V25.0342C49.6215 24.9278 49.5449 24.8268 49.4609 24.7313C49.0646 24.281 48.4973 24.0559 47.7588 24.0559C47.1915 24.0559 46.6601 24.209 46.1648 24.5152C45.6785 24.8214 45.2823 25.2446 44.9761 25.785C44.6789 26.3163 44.5303 26.9332 44.5303 27.6356C44.5303 28.3381 44.6744 28.9549 44.9626 29.4863C45.2598 30.0176 45.647 30.4318 46.1243 30.729C46.6106 31.0172 47.1374 31.1613 47.7048 31.1613C48.2541 31.1613 48.7134 31.0352 49.0826 30.7831C49.3171 30.6268 49.5152 30.4376 49.677 30.2155V30.3238C49.677 30.729 49.6005 31.0667 49.4474 31.3369C49.3033 31.6161 49.0871 31.8277 48.799 31.9718C48.5108 32.1159 48.1641 32.1879 47.7588 32.1879C47.0564 32.1879 46.4305 31.9358 45.8812 31.4315L44.787 32.9444C45.1562 33.2776 45.6155 33.5343 46.1648 33.7144C46.7232 33.9035 47.304 33.998 47.9074 33.998C48.6999 33.998 49.3933 33.8404 49.9877 33.5252C50.5821 33.2191 51.0459 32.7778 51.3791 32.2014ZM49.677 28.3817V27.6761C49.677 27.2979 49.6185 26.9782 49.5014 26.7171C49.3933 26.4469 49.2357 26.2398 49.0286 26.0957C48.8215 25.9516 48.5738 25.8795 48.2856 25.8795C47.9885 25.8795 47.7273 25.9606 47.5022 26.1227C47.286 26.2758 47.1149 26.4829 46.9888 26.7441C46.8628 27.0052 46.7997 27.2979 46.7997 27.6221C46.7997 27.9553 46.8628 28.2525 46.9888 28.5137C47.1149 28.7658 47.2905 28.9639 47.5157 29.108C47.7498 29.2521 48.02 29.3242 48.3262 29.3242C48.5603 29.3242 48.7765 29.2746 48.9746 29.1756C49.1727 29.0765 49.3393 28.9369 49.4744 28.7568C49.56 28.6426 49.6276 28.5176 49.677 28.3817Z" fill="#323232"/>
</svg>
